<svg xmlns="http://www.w3.org/2000/svg" xmlns:xlink="http://www.w3.org/1999/xlink" fill="none" version="1.1" width="52" height="26" viewBox="0 0 52 26"><defs><linearGradient x1="0.07577391713857651" y1="0.5" x2="1" y2="0.5" id="master_svg0_6137_09527"><stop offset="0%" stop-color="#2C8BF2" stop-opacity="1"/><stop offset="100%" stop-color="#3C94F9" stop-opacity="1"/></linearGradient><linearGradient x1="1" y1="0.4529920220375061" x2="0.2534989994066283" y2="0.5025114677716309" id="master_svg1_6137_07377"><stop offset="0%" stop-color="#75F8FC" stop-opacity="1"/><stop offset="100%" stop-color="#29C4C9" stop-opacity="1"/></linearGradient></defs><path d="M13.769378,10.569566C17.127317,12.076812,20.594757,13.329711,24.171692,14.328262C24.445436,14.403624,24.783056,14.497828,25.184547,14.610871L24.308567,16.617392L22.447098,16.023914L22.447098,26L20.065517,26L20.065517,24.869564L5.5570254,24.869564L5.5570254,26L3.1206942,26L3.1206942,15.910872L1.177104,16.560871L3.5347549e-14,14.582609C0.80298561,14.394204,1.4690987,14.24348,1.9983393,14.130436C5.86727,13.226089,9.0974617,12.039131,11.688915,10.569566L13.769378,10.569566ZM31.754431,0.056521744L34.245514,0.76304346C34.190762,0.93260872,34.154263,1.0739131,34.136013,1.1869568C33.953518,1.9217391,33.670647,2.6565218,33.287407,3.3913047C33.250904,3.4478261,33.20528,3.532609,33.150532,3.6456523L40.295284,3.6456523L40.295284,6.2739134L36.435474,6.2739134L36.435474,8.902174C36.435474,10.089131,36.398972,11.02174,36.325977,11.700002L41.14389,11.700002L41.14389,14.328262L36.106979,14.328262L35.970108,15.006522L35.778488,16.052176C38.077946,17.860872,39.921158,19.641304,41.308136,21.393478L39.556164,23.68261C38.096191,21.723188,36.554096,20.055799,34.929874,18.680435C34.181637,20.300728,33.401463,21.628984,32.589355,22.665216C31.777243,23.70145,30.641203,24.813046,29.181227,26L27.37451,23.597826C29.254225,22.241308,30.609262,20.880075,31.439627,19.514132C32.269985,18.14819,32.895035,16.419567,33.314777,14.328262L27.566133,14.328262L27.566133,11.700002L33.670647,11.700002C33.743645,11.02174,33.780144,10.098551,33.780144,8.9304361L33.780144,6.2739134L32.000801,6.2739134C31.270817,7.5927544,30.403955,8.7702904,29.400223,9.8065205L27.37451,7.8565226C29.345474,5.8217397,30.805449,3.2217393,31.754431,0.056521744ZM50.122986,2.4587331C51.165977,2.4653916,52.006268,3.3436852,51.999821,4.4204564L51.903111,20.567415L49.383148,19.125286L49.383617,5.7368579C49.383617,5.4035654,49.140602,5.128871,48.827511,5.0913291L48.754097,5.0869565L45.277344,5.0869565C44.929665,5.0869565,44.647827,5.3779268,44.647827,5.7368579L44.647827,21.048346C44.647827,21.407274,44.929665,21.698242,45.277344,21.698242L48.754097,21.698242C49.053421,21.698242,49.303955,21.482573,49.367844,21.193544L51.890522,22.649698L51.889374,22.858969C51.883171,23.892744,51.098503,24.734524,50.11134,24.793331L50.000851,24.796614L43.88105,24.796614C42.838032,24.796614,41.992496,23.923702,41.992496,22.846914L41.992496,4.4083991C41.992496,3.3316073,42.838032,2.4586959,43.88105,2.4586959L50.122986,2.4587331ZM20.065517,21.534786L5.5570254,21.534786L5.5570254,23.145653L20.065517,23.145653L20.065517,21.534786ZM20.065517,18.821739L5.5570254,18.821739L5.5570254,20.234783L20.065517,20.234783L20.065517,18.821739ZM20.065517,16.221741L5.5570254,16.221741L5.5570254,17.52174L20.065517,17.52174L20.065517,16.221741ZM12.811271,12.208695C11.625043,12.886957,9.7909489,13.640582,7.3089938,14.469566L18.39567,14.469566L15.302352,13.31087L12.811271,12.208695ZM17.081694,8.8739128C18.578165,9.1942043,20.667755,9.8724642,23.350456,10.908698L24.445436,11.332608L23.158836,12.97174C22.903343,12.858696,22.69347,12.764495,22.529224,12.689132C20.8685,11.916667,18.696791,11.068842,16.014088,10.145654L17.081694,8.8739128ZM7.965982,8.8739128L9.5810795,9.9760885C7.8108606,11.05,5.3289042,12.010871,2.1352117,12.858696L0.84860975,11.134784C3.8233068,10.550725,6.1957641,9.7971029,7.965982,8.8739128ZM12.893394,0L12.893394,1.1304349L22.447098,1.1304349L22.447098,2.9391305L12.893394,2.9391305L12.893394,4.2391305L24.691809,4.2391305L24.691809,7.9610028C24.691809,8.2781601,24.470064,8.5489969,24.167149,8.6018238L22.282848,8.9304361L22.282848,6.1326089L3.6408095,6.1326089L3.6408095,8.902174L1.1497294,8.902174L1.1497294,4.2391305L10.292816,4.2391305L10.292816,0L12.893394,0ZM20.558258,7.1500001L20.558258,8.8173914L5.1190333,8.8173914L5.1190333,7.1500001L20.558258,7.1500001Z" fill="url(#master_svg0_6137_09527)" fill-opacity="1" style="mix-blend-mode:passthrough"/><path d="M49.38361837172852,21.16850471496582L52.00000047172851,22.62468541496582C51.984410271728514,23.40812251496582,51.729969471728516,23.98177381496582,51.23667477172852,24.34563971496582C50.800624871728516,24.66728071496582,50.36860037172852,24.81760551496582,49.94060377172852,24.79661421496582L49.114510971728514,24.79661421496582L45.000797271728516,21.66327127496582L48.32171127172852,21.66327127496582C48.70518947172852,21.68718296496582,48.959816471728516,21.65466606496582,49.08559797172852,21.56571817496582C49.211379571728514,21.47677281496582,49.310716671728514,21.34436751496582,49.38361837172852,21.16850471496582Z" fill="url(#master_svg1_6137_07377)" fill-opacity="1" style="mix-blend-mode:passthrough"/></svg>