<svg preserveAspectRatio="none" width="100%" height="100%" overflow="visible" style="display: block;" viewBox="0 0 16 16" fill="none" xmlns="http://www.w3.org/2000/svg">
<g id="Bell">
<path id="Vector" d="M13.4286 12.5693H13V6.49783C13 3.97819 11.1375 1.89604 8.71429 1.54962V0.854973C8.71429 0.46033 8.39464 0.140687 8 0.140687C7.60536 0.140687 7.28571 0.46033 7.28571 0.854973V1.54962C4.8625 1.89604 3 3.97819 3 6.49783V12.5693H2.57143C2.25536 12.5693 2 12.8246 2 13.1407V13.7121C2 13.7907 2.06429 13.855 2.14286 13.855H6C6 14.9585 6.89643 15.855 8 15.855C9.10357 15.855 10 14.9585 10 13.855H13.8571C13.9357 13.855 14 13.7907 14 13.7121V13.1407C14 12.8246 13.7446 12.5693 13.4286 12.5693ZM8 14.7121C7.52679 14.7121 7.14286 14.3282 7.14286 13.855H8.85714C8.85714 14.3282 8.47321 14.7121 8 14.7121ZM4.28571 12.5693V6.49783C4.28571 5.50497 4.67143 4.57283 5.37321 3.87104C6.075 3.16926 7.00714 2.78354 8 2.78354C8.99286 2.78354 9.925 3.16926 10.6268 3.87104C11.3286 4.57283 11.7143 5.50497 11.7143 6.49783V12.5693H4.28571Z" fill="var(--fill-0, #204A7A)"/>
</g>
</svg>
