<svg preserveAspectRatio="none" width="100%" height="100%" overflow="visible" style="display: block;" viewBox="0 0 160 21" fill="none" xmlns="http://www.w3.org/2000/svg">
<g id="&#231;&#187;&#132; 5095 1" clip-path="url(#clip0_0_4)">
<path id="Vector" fill-rule="evenodd" clip-rule="evenodd" d="M160 12V18H154L160 12Z" fill="var(--fill-0, #61D8F1)"/>
<path id="Vector_2" d="M4.77395 11.2171L8.40137 13.5732L12.0288 20.5712H9.69554L4.77395 11.2171Z" fill="var(--fill-0, #75F8FC)"/>
<path id="Vector_3" d="M4.64985 20.5712L4.16821 4.69567H8.64141C11.5897 4.69567 13.5213 5.46804 13.5213 7.78512C13.5213 10.6171 11.8438 11.338 7.98059 11.338H4.67653L11.752 20.5712H19.3911L11.2338 14.3759C15.097 14.067 17.6386 12.2648 17.6386 7.83661C17.6386 3.30542 14.6904 1.03983 8.64141 1.03983H0V20.4719L4.64985 20.5712ZM37.6798 20.5712V16.4189H24.8637V12.7416H36.7053V8.65981H24.8637V4.72398H37.6798V1.14914H20.0609V20.5712H37.6798ZM45.7589 20.5712L50.3398 4.82328L55.2033 20.5712H61.5756L54.6851 0.624216H45.8951L38.7162 20.5712H45.7589ZM72.4667 20.4719C74.8423 20.4719 76.6665 20.1841 78.83 19.3209V14.5808C77.3452 15.2796 74.9696 15.9784 72.5515 15.9784C69.2418 15.9784 66.5929 13.4657 66.5929 10.2359C66.5929 7.00615 68.6063 4.53455 72.5515 4.53455C74.2909 4.53455 76.4544 4.86341 78.83 5.89112V1.10992C76.7513 0.287757 74.6302 0 72.4667 0C66.0185 0 61.9885 3.69974 61.9885 10.2359C61.9885 16.7721 65.9337 20.4719 72.4667 20.4719ZM86.7751 20.4719V12.5706H95.075V20.4719H100.382V0H95.075V7.86941H86.7751V0H80.9497V20.4719H86.7751Z" fill="var(--fill-0, white)"/>
<path id="Vector_4" d="M50.3918 14.7761L52.4353 20.5712H48.3691L50.3918 14.7761Z" fill="var(--fill-0, #75F8FC)"/>
<path id="Vector_5" d="M116.53 8.53695C119.294 9.75435 122.148 10.7663 125.092 11.5728C125.318 11.6337 125.596 11.7098 125.926 11.8011L125.205 13.4217L123.673 12.9424V21H121.712V20.087H109.769V21H107.764V12.8511L106.164 13.3761L105.195 11.7783C105.856 11.6261 106.404 11.5043 106.84 11.413C110.025 10.6826 112.684 9.72391 114.817 8.53695H116.53ZM131.334 0.0456522L133.385 0.616304C133.34 0.753261 133.31 0.867391 133.295 0.958696C133.145 1.55217 132.912 2.14565 132.596 2.73913C132.566 2.78478 132.529 2.85326 132.484 2.94457H138.365V5.06739H135.188V7.19022C135.188 8.14891 135.158 8.90217 135.098 9.45H139.064V11.5728H134.917L134.805 12.1207L134.647 12.9652C136.54 14.4261 138.057 15.8641 139.199 17.2793L137.757 19.1283C136.555 17.5457 135.285 16.1989 133.948 15.088C133.332 16.3967 132.69 17.4696 132.022 18.3065C131.353 19.1435 130.418 20.0413 129.216 21L127.729 19.0598C129.276 17.9641 130.392 16.8647 131.075 15.7614C131.759 14.6582 132.273 13.262 132.619 11.5728H127.887V9.45H132.912C132.972 8.90217 133.002 8.15652 133.002 7.21304V5.06739H131.537C130.936 6.13261 130.223 7.08369 129.396 7.92065L127.729 6.34565C129.351 4.70217 130.553 2.60217 131.334 0.0456522ZM146.455 1.9859C147.313 1.99128 148.005 2.70067 148 3.57037L147.92 16.6121L145.846 15.4473L145.846 4.63362C145.846 4.36442 145.646 4.14255 145.389 4.11223L145.328 4.1087H142.466C142.18 4.1087 141.948 4.34371 141.948 4.63362V17.0006C141.948 17.2905 142.18 17.5255 142.466 17.5255H145.328C145.574 17.5255 145.781 17.3513 145.833 17.1179L147.91 18.294L147.909 18.463C147.904 19.298 147.258 19.9779 146.445 20.0254L146.354 20.028H141.317C140.458 20.028 139.762 19.323 139.762 18.4533V3.56063C139.762 2.69091 140.458 1.98587 141.317 1.98587L146.455 1.9859ZM121.712 17.3935H109.769V18.6946H121.712V17.3935ZM121.712 15.2022H109.769V16.3435H121.712V15.2022ZM121.712 13.1022H109.769V14.1522H121.712V13.1022ZM115.741 9.86087C114.764 10.4087 113.255 11.0174 111.212 11.687H120.338L117.791 10.7511L115.741 9.86087ZM119.256 7.16739C120.488 7.42609 122.208 7.97391 124.416 8.81087L125.318 9.15326L124.259 10.4772C124.048 10.3859 123.876 10.3098 123.74 10.2489C122.373 9.625 120.586 8.94022 118.377 8.19457L119.256 7.16739ZM111.752 7.16739L113.082 8.05761C111.625 8.925 109.582 9.70109 106.953 10.3859L105.894 8.99348C108.342 8.52174 110.295 7.91304 111.752 7.16739ZM115.809 0V0.913043H123.673V2.37391H115.809V3.42391H125.521V6.43004C125.521 6.6862 125.338 6.90496 125.089 6.94763L123.538 7.21304V4.95326H108.192V7.19022H106.141V3.42391H113.668V0H115.809ZM122.118 5.775V7.12174H109.409V5.775H122.118Z" fill="var(--fill-0, white)"/>
<path id="Vector_6" d="M145.846 17.0976L148 18.2738C147.987 18.9066 147.778 19.3699 147.372 19.6638C147.013 19.9236 146.657 20.045 146.305 20.028H145.625L142.238 17.4973H144.972C145.288 17.5166 145.497 17.4903 145.601 17.4185C145.704 17.3466 145.786 17.2397 145.846 17.0976Z" fill="url(#paint0_linear_0_4)"/>
</g>
<defs>
<linearGradient id="paint0_linear_0_4" x1="148" y1="18.4258" x2="143.75" y2="18.9592" gradientUnits="userSpaceOnUse">
<stop stop-color="#75F8FC"/>
<stop offset="1" stop-color="#29C4C9"/>
</linearGradient>
<clipPath id="clip0_0_4">
<rect width="160" height="21" fill="white"/>
</clipPath>
</defs>
</svg>
