<svg xmlns="http://www.w3.org/2000/svg" xmlns:xlink="http://www.w3.org/1999/xlink" fill="none" version="1.1" width="156" height="23" viewBox="0 0 156 23"><defs><clipPath id="master_svg0_6137_07480"><rect x="0" y="0" width="156" height="23" rx="0"/></clipPath><linearGradient x1="0" y1="0.47979849576950073" x2="0.999837089850732" y2="0.5309629784669205" id="master_svg1_6137_09103"><stop offset="0%" stop-color="#027AFF" stop-opacity="1"/><stop offset="81.27111196517944%" stop-color="#4AA5FE" stop-opacity="1"/><stop offset="100%" stop-color="#2685F0" stop-opacity="1"/></linearGradient><linearGradient x1="0.05622084438800812" y1="0.38328492641448975" x2="0.9998093698113553" y2="0.5712618610972919" id="master_svg2_6137_09104"><stop offset="0%" stop-color="#2B8AF2" stop-opacity="1"/><stop offset="100%" stop-color="#3D95F9" stop-opacity="1"/></linearGradient><linearGradient x1="1" y1="0.45343440771102905" x2="0.2993591309155767" y2="0.5718854291445181" id="master_svg3_6137_09105"><stop offset="0%" stop-color="#75F8FC" stop-opacity="1"/><stop offset="100%" stop-color="#37CACF" stop-opacity="1"/></linearGradient></defs><g clip-path="url(#master_svg0_6137_07480)"><path d="M5.75830078125,11.5L9.68447538125,13.8699727L13.61065008125,20.90909L11.085236981249999,20.90909L5.75830078125,11.5Z" fill="#75F8FC" fill-opacity="1" style="mix-blend-mode:passthrough"/><path d="M4.7701206,21.95450015625L4.2760162,5.80890795625L8.864913,5.80890795625C11.889412,5.80890795625,13.87098,6.59440945625,13.87098,8.950915856249999C13.87098,11.83109115625,12.150145,12.56422515625,8.187007,12.56422515625L4.797482,12.56422515625L12.055991,21.95450015625L19.892618,21.95450015625L11.524386,15.65386715625C15.487524,15.33966515625,18.094851,13.50682815625,18.094851,9.00328255625C18.094851,4.39500405625,15.070351,2.09086465625,8.864913,2.09086465625L0,2.09086465625L0,21.85351415625L4.7701206,21.95450015625ZM39.261745,21.95450015625L39.261745,17.70781515625L25.934052,17.70781515625L25.934052,13.94689715625L38.248318,13.94689715625L38.248318,9.77230455625L25.934052,9.77230455625L25.934052,5.74699065625L39.261745,5.74699065625L39.261745,2.09086465625L20.939598,2.09086465625L20.939598,21.95450015625L39.261745,21.95450015625ZM47.566395,21.95450015625L52.287029,5.85969825625L57.298939,21.95450015625L63.865776,21.95450015625L56.764919,1.56813740625L47.706753,1.56813740625L40.308727,21.95450015625L47.566395,21.95450015625ZM75.137283,21.95450015625C77.574089,21.95450015625,79.445206,21.66059715625,81.664429,20.77888915625L81.664429,15.93756615625C80.141434,16.65132915625,77.704628,17.36509315625,75.224319,17.36509315625C71.829315,17.36509315625,69.112244,14.79872515625,69.112244,11.49995515625C69.112244,8.20118525625,71.17749,5.67680265625,75.224319,5.67680265625C77.0084,5.67680265625,79.227638,6.01269145625,81.664429,7.06234505625L81.664429,2.1790354562500003C79.532234,1.3393129962499999,77.356522,1.04541015625,75.137283,1.04541015625C68.523125,1.04541015625,64.389267,4.82416105625,64.389267,11.49995515625C64.389267,18.17574915625,68.436096,21.95450015625,75.137283,21.95450015625ZM89.878662,21.95450015625L89.878662,13.88450215625L98.598663,13.88450215625L98.598663,21.95450015625L104.1745,21.95450015625L104.1745,1.04541015625L98.598663,1.04541015625L98.598663,9.08288095625L89.878662,9.08288095625L89.878662,1.04541015625L83.758392,1.04541015625L83.758392,21.95450015625L89.878662,21.95450015625Z" fill="url(#master_svg1_6137_09103)" fill-opacity="1" style="mix-blend-mode:passthrough"/><path d="M121.2232651875,9.1374998C124.2320181875,10.44053,127.3388821875,11.523674,130.5438591875,12.386931C130.7891371875,12.452083,131.0916481875,12.533523,131.4513891875,12.631249L130.6664981875,14.365909L128.9986021875,13.85284L128.9986021875,22.477272L126.8646771875,22.477272L126.8646771875,21.5L113.8649015875,21.5L113.8649015875,22.477272L111.6819202875,22.477272L111.6819202875,13.755114L109.9404408875,14.317044L108.8857421875,12.606818C109.6052265775,12.443939,110.2020715875,12.313636,110.6762772875,12.215909C114.1428842875,11.434091,117.0371732875,10.407954,119.3591461875,9.1374998L121.2232651875,9.1374998ZM137.3380811875,0.048863634L139.5701161875,0.65965909C139.5210611875,0.80624998,139.48835718750001,0.92840904,139.4720061875,1.0261363C139.3084871875,1.6613635,139.0550331875,2.2965908,138.7116411875,2.931818C138.6789381875,2.9806817,138.6380581875,3.0539773,138.5890021875,3.1517045L144.9907761875,3.1517045L144.9907761875,5.4238634L141.5323481875,5.4238634L141.5323481875,7.6960225C141.5323481875,8.7221584,141.4996411875,9.5284081,141.4342381875,10.114773L145.7511401875,10.114773L145.7511401875,12.386931L141.2380141875,12.386931L141.1153751875,12.973294L140.9436801875,13.877273C143.0040211875,15.440908,144.6555631875,16.980114,145.8983081875,18.494886L144.3285251875,20.473864C143.0203741875,18.779922,141.6386341875,17.338448,140.1833131875,16.149431C139.5128861875,17.550188,138.8138411875,18.698484,138.0861811875,19.594318C137.3585201875,20.49015,136.3406141875,21.451136,135.0324591875,22.477272L133.4136201875,20.400566C135.0978681875,19.22784,136.3119981875,18.051041,137.0560091875,16.870169C137.8000221875,15.689299,138.3600751875,14.194886,138.7361701875,12.386931L133.58531618749998,12.386931L133.58531618749998,10.114773L139.0550331875,10.114773C139.1204391875,9.5284081,139.1531451875,8.7303019,139.1531451875,7.7204542L139.1531451875,5.4238634L137.5588301875,5.4238634C136.9047541875,6.5640149,136.1280381875,7.5820074,135.2286831875,8.4778414L133.4136201875,6.7920456C135.1796281875,5.0329542,136.4877811875,2.7852271,137.3380811875,0.048863634ZM153.4533421875,2.1256073C154.5774041875,2.1325657,155.4829821875,3.0481093,155.4760131875,4.1705308L155.3904951875,17.887728L153.13373218750002,16.553204L153.1340331875,5.0751815C153.1340331875,4.7244177,152.8670651875,4.4359174,152.5249591875,4.4012251L152.4555931875,4.397727L149.5691531875,4.397727C149.1944621875,4.397727,148.8907131875,4.7010336,148.8907131875,5.0751815L148.8907131875,18.080902C148.8907131875,18.455051,149.1944621875,18.758358,149.5691531875,18.758358L152.4555931875,18.758358C152.75046918750002,18.758358,153.0014041875,18.570509,153.0949321875,18.308117L155.3741111875,19.577539C155.2860831875,20.61974,154.4111561875,21.43693,153.3460621875,21.43693L148.5468371875,21.43693C147.4227521875,21.43693,146.5115051875,20.527008,146.5115051875,19.404566L146.5115051875,4.1579318C146.5115051875,3.0354881,147.4227521875,2.1255679,148.5468371875,2.1255679L153.4533421875,2.1256073ZM126.8646771875,18.617046L113.8649015875,18.617046L113.8649015875,20.009657L126.8646771875,20.009657L126.8646771875,18.617046ZM126.8646771875,16.271591L113.8649015875,16.271591L113.8649015875,17.493181L126.8646771875,17.493181L126.8646771875,16.271591ZM126.8646771875,14.023863L113.8649015875,14.023863L113.8649015875,15.147726L126.8646771875,15.147726L126.8646771875,14.023863ZM120.3647891875,10.554545C119.3019141875,11.140908,117.6585464875,11.792423,115.43468568750001,12.50909L125.3684771875,12.50909L122.5968251875,11.507385L120.3647891875,10.554545ZM124.1911381875,7.6715908C125.5319961875,7.9484844,127.4042891875,8.5348482,129.8080231875,9.4306812L130.7891371875,9.7971592L129.6363261875,11.214204C129.4074001875,11.116477,129.2193531875,11.035038,129.0721851875,10.969887C127.5841621875,10.302083,125.63828318750001,9.569129,123.2345501875,8.7710228L124.1911381875,7.6715908ZM116.0233544875,7.6715908L117.4704999875,8.6244316C115.8843636875,9.5528402,113.6605028875,10.383522,110.7989166875,11.116477L109.6461064175,9.6261368C112.3114692875,9.121212,114.4372186875,8.469696,116.0233544875,7.6715908ZM120.4383721875,0L120.4383721875,0.97727269L128.9986021875,0.97727269L128.9986021875,2.5409088L120.4383721875,2.5409088L120.4383721875,3.6647725L131.0098881875,3.6647725L131.0098881875,6.7844172C131.0098881875,7.1151242,130.7707651875,7.397501,130.4441791875,7.4524536L128.8514351875,7.7204542L128.8514351875,5.3017044L112.1479498875,5.3017044L112.1479498875,7.6960225L109.9159130875,7.6960225L109.9159130875,3.6647725L118.1082248875,3.6647725L118.1082248875,0L120.4383721875,0ZM127.30617918749999,6.1812496L127.30617918749999,7.6227274L113.4724554875,7.6227274L113.4724554875,6.1812496L127.30617918749999,6.1812496Z" fill="url(#master_svg2_6137_09104)" fill-opacity="1" style="mix-blend-mode:passthrough"/><path d="M153.12846751875,18.29541015625L155.47670361875,19.55355355625C155.46270891875,20.23044655625,155.23434491875,20.72608275625,154.79160781875,21.04046395625C154.40024851875,21.31836225625,154.01249981875,21.44824455625,153.62836931875,21.43010665625L152.88693571875,21.43010665625L149.19482421875,18.72288977625L152.17539241875,18.72288977625C152.51956371875,18.74354812625,152.74809531875,18.71545401625,152.86098721875,18.63860344625C152.97387911875,18.56175491625,153.06303521875,18.44735647625,153.12846751875,18.29541015625Z" fill="url(#master_svg3_6137_09105)" fill-opacity="1" style="mix-blend-mode:passthrough"/><path d="M52.3380589125,16.20458984375L54.4428024125,21.95458984375L50.2548828125,21.95458984375L52.3380589125,16.20458984375Z" fill="#75F8FC" fill-opacity="1" style="mix-blend-mode:passthrough"/></g></svg>